# Blender v2.76 (sub 0) OBJ File: 'board.blend'
# www.blender.org
mtllib board.mtl
o Cube
v 5.956604 -0.380000 -8.048003
v 5.956605 -0.380000 11.829700
v -5.956606 -0.380000 11.829700
v -5.956602 -0.380000 -8.048004
v 5.956607 0.380000 -8.048001
v 5.956602 0.380000 11.829701
v -5.956607 0.380000 11.829700
v -5.956604 0.380000 -8.048003
v 5.956604 0.380000 -8.048003
v 5.956604 0.380000 -6.956340
v -5.956605 0.380000 -6.956340
v -5.956602 0.380000 -8.048003
v 5.956607 2.660000 -8.048003
v 5.956601 7.887544 -6.956340
v -5.956607 7.887544 -6.956340
v -5.956604 2.660000 -8.048003
v 3.958996 0.380808 11.836760
v 3.958996 1.771819 11.836760
v 3.958996 0.378668 10.448817
v 3.958996 1.771819 10.448817
v 5.960462 0.382771 11.824097
v 5.960462 1.771819 11.836760
v 5.960462 0.378103 10.448817
v 5.960462 1.771819 10.448817
v 3.734048 0.380322 11.832227
v 3.734048 1.767796 11.832227
v 3.734048 0.380322 -2.296307
v 3.734048 1.767796 -2.296307
v 3.956703 0.380322 11.832227
v 3.956703 1.767796 11.832227
v 3.956703 0.380322 -2.296307
v 3.956703 1.767796 -2.296307
v 5.953098 -0.389881 11.833508
v 5.953098 2.633465 11.841254
v 5.953098 -0.389881 -8.041242
v 5.953098 7.887163 -6.956734
v 6.080836 -0.389881 11.833508
v 6.080836 2.633465 11.841254
v 6.080836 -0.389881 -8.041242
v 6.080836 7.887163 -6.956734
v 4.661131 0.392676 -5.374433
v 4.661131 1.793971 -5.374433
v 2.830056 0.392676 -6.952261
v 2.830056 1.793971 -6.952261
v 5.949398 0.392676 -4.062300
v 5.949398 1.793971 -4.062300
v 5.948133 0.392676 -6.956303
v 5.948133 1.793971 -6.956303
v -5.957139 -0.382954 11.830806
v -5.957139 2.649331 11.830806
v -5.957139 -0.382954 -8.048027
v -5.957139 7.903079 -7.042617
v -6.350711 -0.382954 11.830806
v -6.350711 2.649331 11.830806
v -6.350711 -0.382954 -8.048027
v -6.350711 7.903079 -7.042617
v -6.351257 -0.390997 12.136669
v -6.351257 1.857001 12.136669
v -6.351257 -0.390997 11.835334
v -6.351257 2.629889 11.835334
v 6.072618 -0.390997 12.136669
v 6.072618 1.857001 12.136669
v 6.072618 -0.390997 11.835334
v 6.072618 2.629889 11.835334
v 4.507534 1.471207 10.893921
vn 0.000000 -1.000000 0.000000
vn 0.000000 1.000000 0.000000
vn 1.000000 0.000000 0.000000
vn 0.000000 -0.000000 1.000000
vn -1.000000 -0.000000 -0.000000
vn 0.000000 0.000000 -1.000000
vn 0.006300 0.000000 1.000000
vn -0.000300 -1.000000 0.003400
vn 0.000000 0.129900 -0.991500
vn 0.000000 -0.002600 1.000000
vn 0.000000 0.963100 0.269200
vn -0.652800 0.000000 0.757600
vn -0.001300 0.000000 -1.000000
vn 1.000000 0.000000 -0.000400
vn -0.713600 0.000000 0.700600
vn 0.000000 -0.120500 0.992700
vn 0.000000 -0.963400 -0.268200
vn 0.000000 0.363300 0.931700
vn 0.000000 -0.009100 1.000000
vn 0.001000 -1.000000 0.001500
vn 0.000000 0.363200 0.931700
vn 0.000000 0.204400 -0.978900
usemtl Material
s off
f 2//1 3//1 4//1
f 8//2 7//2 6//2
f 5//3 6//3 2//3
f 6//4 7//4 3//4
f 7//5 8//5 4//5
f 1//6 4//6 8//6
f 20//5 19//5 17//5
f 24//6 23//6 19//6
f 24//3 22//3 21//3
f 18//7 17//7 21//7
f 19//8 23//8 21//8
f 24//2 20//2 18//2
f 28//5 27//5 25//5
f 32//6 31//6 27//6
f 30//3 29//3 31//3
f 26//4 25//4 29//4
f 27//1 31//1 29//1
f 32//2 28//2 26//2
f 34//5 36//5 35//5
f 40//9 39//9 35//9
f 38//3 37//3 39//3
f 34//10 33//10 37//10
f 35//1 39//1 37//1
f 40//11 36//11 34//11
f 44//12 43//12 41//12
f 48//13 47//13 43//13
f 46//14 45//14 47//14
f 42//15 41//15 45//15
f 41//1 43//1 47//1
f 48//2 44//2 42//2
f 50//5 52//5 51//5
f 56//16 55//16 51//16
f 54//3 53//3 55//3
f 50//6 49//6 53//6
f 51//2 55//2 53//2
f 56//17 52//17 50//17
f 58//5 60//5 59//5
f 64//6 63//6 59//6
f 62//3 61//3 63//3
f 58//4 57//4 61//4
f 59//1 63//1 61//1
f 64//18 60//18 58//18
f 1//1 2//1 4//1
f 5//2 8//2 6//2
f 1//3 5//3 2//3
f 2//4 6//4 3//4
f 3//5 7//5 4//5
f 5//6 1//6 8//6
f 18//5 20//5 17//5
f 20//6 24//6 19//6
f 23//3 24//3 21//3
f 22//19 18//19 21//19
f 17//20 19//20 21//20
f 22//2 24//2 18//2
f 26//5 28//5 25//5
f 28//6 32//6 27//6
f 32//3 30//3 31//3
f 30//4 26//4 29//4
f 25//1 27//1 29//1
f 30//2 32//2 26//2
f 33//5 34//5 35//5
f 36//9 40//9 35//9
f 40//3 38//3 39//3
f 38//10 34//10 37//10
f 33//1 35//1 37//1
f 38//11 40//11 34//11
f 42//12 44//12 41//12
f 44//13 48//13 43//13
f 48//14 46//14 47//14
f 46//15 42//15 45//15
f 45//1 41//1 47//1
f 46//2 48//2 42//2
f 49//5 50//5 51//5
f 52//16 56//16 51//16
f 56//3 54//3 55//3
f 54//6 50//6 53//6
f 49//2 51//2 53//2
f 54//17 56//17 50//17
f 57//5 58//5 59//5
f 60//6 64//6 59//6
f 64//3 62//3 63//3
f 62//4 58//4 61//4
f 57//1 59//1 61//1
f 62//21 64//21 58//21
usemtl Material.001
f 10//1 11//1 12//1
f 16//22 15//22 14//22
f 13//3 14//3 10//3
f 14//4 15//4 11//4
f 11//5 15//5 16//5
f 9//6 12//6 16//6
f 9//1 10//1 12//1
f 13//22 16//22 14//22
f 9//3 13//3 10//3
f 10//4 14//4 11//4
f 12//5 11//5 16//5
f 13//6 9//6 16//6
