# Blender v2.76 (sub 0) OBJ File: 'rightTriangle.blend'
# www.blender.org
mtllib rightTriangle.mtl
o Cube
v -1.000000 0.750000 1.000000
v 2.771363 0.750000 1.000000
v -1.000000 0.750000 -3.252495
v -0.999999 -0.750000 1.000000
v 2.771363 -0.750000 0.999999
v -1.000000 -0.750000 -3.252495
vn -0.000000 1.000000 0.000000
vn 0.000000 -1.000000 0.000000
vn 0.000000 -0.000000 1.000000
vn -1.000000 -0.000000 0.000000
vn 0.748200 0.000000 -0.663500
usemtl Material
s off
f 1//1 2//1 3//1
f 4//2 6//2 5//2
f 4//3 5//3 2//3
f 1//4 3//4 6//4
f 5//5 6//5 3//5
f 1//3 4//3 2//3
f 4//4 1//4 6//4
f 2//5 5//5 3//5
