# Blender v2.76 (sub 0) OBJ File: 'leftFlipper.blend'
# www.blender.org
mtllib rightFlipper.mtl
o Cylinder
v -5.633906 -1.999964 -0.232504
v -5.557047 -1.999964 0.060131
v -5.329424 -1.999964 0.341521
v -5.329424 0.000036 0.341521
v -4.959785 -1.999964 0.600851
v -4.959785 0.000036 0.600851
v -4.462333 -1.999964 0.828156
v -4.462333 0.000036 0.828156
v -3.856187 -1.999964 1.014700
v -3.856187 0.000036 1.014700
v -3.164639 -1.999964 1.153315
v -3.164639 0.000036 1.153315
v -2.414266 -1.999964 1.238674
v -2.414266 0.000036 1.238674
v -1.633905 -1.999964 1.267496
v -1.633905 0.000036 1.267496
v -0.853543 -1.999964 1.238674
v -0.853543 0.000036 1.238674
v -0.103171 -1.999964 1.153315
v -0.103171 0.000036 1.153315
v 0.588377 -1.999964 1.014700
v 0.588377 0.000036 1.014700
v 1.194523 -1.999964 0.828155
v 1.194523 0.000036 0.828155
v 1.691974 -1.999964 0.600850
v 1.691974 0.000036 0.600850
v 2.061614 -1.999964 0.341520
v 2.061614 0.000036 0.341520
v 2.289236 -1.999964 0.060130
v 2.289236 0.000036 0.060130
v 2.366094 -1.999964 -0.232506
v 2.366094 0.000036 -0.232506
v 2.289234 -1.999964 -0.525141
v 2.289234 0.000036 -0.525141
v 2.061610 -1.999964 -0.806531
v 2.061610 0.000036 -0.806531
v 1.691970 -1.999964 -1.065861
v 1.194517 -1.999964 -1.293166
v -5.602882 -1.999964 -0.350626
v -5.633906 -1.458538 -0.232504
v -5.557047 -0.004245 0.060131
v -5.556402 0.000036 0.060928
v 1.705585 0.000036 -1.056309
v 1.691970 -0.055598 -1.065861
v 1.194517 -1.506912 -1.293166
v 0.970901 -1.999964 -1.361985
vn 0.148900 -0.202600 0.967900
vn 0.967200 0.000000 0.254000
vn 0.574300 0.000000 -0.818600
vn 0.415600 0.000000 -0.909500
vn 0.294100 0.000000 -0.955800
vn 0.196500 0.000000 -0.980500
vn 0.113000 0.000000 -0.993600
vn 0.036900 0.000000 -0.999300
vn -0.036900 0.000000 -0.999300
vn -0.113000 0.000000 -0.993600
vn -0.196500 0.000000 -0.980500
vn -0.294100 0.000000 -0.955800
vn -0.415600 0.000000 -0.909500
vn -0.574300 0.000000 -0.818600
vn -0.777500 0.000000 -0.628900
vn -0.967200 0.000000 -0.254000
vn -0.967200 0.000000 0.254000
vn -0.777500 0.000000 0.628900
vn 0.000000 -1.000000 0.000000
vn 0.000000 1.000000 0.000000
vn -0.294100 0.000000 0.955800
vn -0.415600 0.000000 0.909500
vn -0.574300 0.000000 0.818600
vn 0.777500 0.000000 -0.628900
vn 0.967200 0.000000 -0.254000
vn 0.777500 -0.000200 -0.628900
usemtl None
s off
f 41//1 40//1 46//1
f 39//2 40//2 1//2
f 4//3 6//3 5//3
f 6//4 8//4 7//4
f 8//5 10//5 9//5
f 10//6 12//6 11//6
f 12//7 14//7 13//7
f 14//8 16//8 15//8
f 16//9 18//9 17//9
f 18//10 20//10 19//10
f 20//11 22//11 21//11
f 22//12 24//12 23//12
f 24//13 26//13 25//13
f 26//14 28//14 27//14
f 28//15 30//15 29//15
f 30//16 32//16 31//16
f 32//17 34//17 33//17
f 34//18 36//18 35//18
f 16//19 14//19 43//19
f 19//20 21//20 46//20
f 38//21 45//21 46//21
f 37//22 44//22 45//22
f 36//23 44//23 35//23
f 41//24 4//24 3//24
f 40//25 41//25 2//25
f 46//1 45//1 41//1
f 44//1 43//1 42//1
f 42//1 41//1 45//1
f 40//1 39//1 46//1
f 45//1 44//1 42//1
f 3//3 4//3 5//3
f 5//4 6//4 7//4
f 7//5 8//5 9//5
f 9//6 10//6 11//6
f 11//7 12//7 13//7
f 13//8 14//8 15//8
f 15//9 16//9 17//9
f 17//10 18//10 19//10
f 19//11 20//11 21//11
f 21//12 22//12 23//12
f 23//13 24//13 25//13
f 25//14 26//14 27//14
f 27//15 28//15 29//15
f 29//16 30//16 31//16
f 31//17 32//17 33//17
f 33//18 34//18 35//18
f 4//19 42//19 6//19
f 43//19 36//19 28//19
f 34//19 32//19 30//19
f 30//19 28//19 36//19
f 26//19 24//19 43//19
f 22//19 20//19 43//19
f 18//19 16//19 43//19
f 14//19 12//19 43//19
f 10//19 8//19 42//19
f 6//19 42//19 8//19
f 36//19 34//19 30//19
f 28//19 26//19 43//19
f 20//19 18//19 43//19
f 12//19 10//19 42//19
f 42//19 43//19 12//19
f 24//19 22//19 43//19
f 38//20 46//20 23//20
f 39//20 1//20 2//20
f 2//20 3//20 39//20
f 5//20 7//20 39//20
f 9//20 11//20 39//20
f 13//20 15//20 46//20
f 17//20 19//20 46//20
f 21//20 23//20 46//20
f 25//20 35//20 37//20
f 29//20 31//20 33//20
f 33//20 35//20 29//20
f 37//20 38//20 23//20
f 39//20 3//20 5//20
f 7//20 9//20 39//20
f 15//20 17//20 46//20
f 23//20 25//20 37//20
f 29//20 35//20 27//20
f 46//20 11//20 13//20
f 11//20 46//20 39//20
f 27//20 35//20 25//20
f 38//22 37//22 45//22
f 37//23 35//23 44//23
f 36//23 43//23 44//23
f 3//24 2//24 41//24
f 41//26 42//26 4//26
f 1//25 40//25 2//25
