# Blender v2.76 (sub 0) OBJ File: 'board.blend'
# www.blender.org
mtllib workingboard.mtl
o Cylinder
v 4.046447 0.548111 8.656372
v 4.046447 1.548111 8.656372
v 4.046447 0.548111 8.356373
v 4.046447 1.548111 8.356373
v 5.853850 0.548111 8.656372
v 5.853850 1.548111 8.656372
v 5.853850 0.548111 8.356373
v 5.853850 1.548111 8.356373
v 4.959078 1.347067 8.660994
v 4.959078 1.347066 10.696471
v 5.017605 1.341302 8.660994
v 5.017605 1.341302 10.696471
v 5.073884 1.324230 8.660994
v 5.073884 1.324230 10.696471
v 5.125750 1.296507 8.660994
v 5.125750 1.296507 10.696471
v 5.171210 1.259199 8.660994
v 5.171210 1.259198 10.696471
v 5.208519 1.213738 8.660994
v 5.208519 1.213737 10.696471
v 5.236242 1.161872 8.660994
v 5.236242 1.161871 10.696471
v 5.253314 1.105594 8.660994
v 5.253314 1.105594 10.696471
v 5.259079 1.047067 8.660994
v 5.259079 1.047066 10.696471
v 5.253314 0.988539 8.660994
v 5.253314 0.988539 10.696471
v 5.236242 0.932262 8.660994
v 5.236242 0.932261 10.696471
v 5.208519 0.880395 8.660994
v 5.208519 0.880395 10.696471
v 5.171210 0.834934 8.660994
v 5.171210 0.834934 10.696471
v 5.125750 0.797626 8.660994
v 5.125750 0.797625 10.696471
v 5.073884 0.769903 8.660994
v 5.073884 0.769903 10.696471
v 5.017605 0.752831 8.660994
v 5.017605 0.752831 10.696471
v 4.959078 0.747066 8.660994
v 4.959078 0.747066 10.696471
v 4.900551 0.752831 8.660994
v 4.900551 0.752831 10.696471
v 4.844273 0.769903 8.660994
v 4.844273 0.769903 10.696471
v 4.792407 0.797626 8.660994
v 4.792407 0.797626 10.696471
v 4.746946 0.834935 8.660994
v 4.746946 0.834934 10.696471
v 4.709637 0.880396 8.660994
v 4.709637 0.880396 10.696471
v 4.681914 0.932262 8.660994
v 4.681914 0.932262 10.696471
v 4.664843 0.988540 8.660994
v 4.664843 0.988540 10.696471
v 4.659078 1.047067 8.660994
v 4.659078 1.047067 10.696471
v 4.664843 1.105594 8.660994
v 4.664843 1.105594 10.696471
v 4.681914 1.161872 8.660994
v 4.681914 1.161872 10.696471
v 4.709638 1.213738 8.660994
v 4.709638 1.213738 10.696471
v 4.746946 1.259199 8.660994
v 4.746946 1.259199 10.696471
v 4.792408 1.296508 8.660994
v 4.792408 1.296507 10.696471
v 4.844274 1.324231 8.660994
v 4.844274 1.324230 10.696471
v 4.900552 1.341302 8.660994
v 4.900552 1.341302 10.696471
v 5.956604 -0.380000 -8.048003
v 5.956605 -0.380000 11.829700
v -5.956605 -0.380000 11.829700
v -5.956602 -0.380000 -8.048005
v 5.956608 0.380000 -8.048001
v 5.956602 0.380000 11.829701
v -5.956608 0.380000 11.829700
v -5.956604 0.380000 -8.048003
v 5.956604 0.380000 -8.048003
v 5.956604 0.380000 -6.956340
v -5.956604 0.380000 -6.956340
v -5.956602 0.380000 -8.048003
v 5.956608 6.787409 -8.048003
v 5.956601 7.887544 -6.956340
v -5.956607 7.887545 -6.956340
v -5.956604 6.787409 -8.048003
v 3.968213 0.405337 11.822333
v 3.968213 1.903448 11.822333
v 3.982712 0.403197 10.726476
v 3.982712 1.903448 10.726476
v 5.943897 0.407300 11.828881
v 5.943897 1.903448 11.841544
v 5.949885 0.402633 10.706336
v 5.949885 1.903448 10.706336
v 3.734048 0.380322 11.796376
v 3.734048 1.899425 11.796376
v 3.734048 0.380322 -3.044825
v 3.734048 1.899425 -3.044825
v 3.956703 0.380322 11.796376
v 3.956703 1.899425 11.796376
v 3.956703 0.380322 -3.044825
v 3.956703 1.899425 -3.044825
v 5.959341 -0.389881 11.814720
v 5.959341 2.633465 11.822466
v 5.953098 -0.389881 -8.041242
v 5.953098 7.887163 -6.956735
v 6.080836 -0.389881 11.824591
v 6.080836 2.633465 11.832337
v 6.080836 -0.389881 -8.041242
v 6.080836 7.887163 -6.956735
v 4.622925 0.392676 -5.374433
v 4.622925 1.925600 -5.374433
v 2.830056 0.392676 -6.952260
v 2.830056 1.925600 -6.952260
v 5.949399 0.392676 -4.062300
v 5.949399 1.925600 -4.062300
v 5.948133 0.392676 -6.956304
v 5.948133 1.925600 -6.956304
v -5.957139 -0.382954 11.830806
v -5.957139 2.649331 11.830806
v -5.957139 -0.382954 -8.048026
v -5.957139 7.903080 -7.042619
v -6.350710 -0.382954 11.830806
v -6.350710 2.649331 11.830806
v -6.350710 -0.382954 -8.048026
v -6.350710 7.903080 -7.042619
v -6.351258 -0.390996 12.166596
v -6.351258 1.921919 12.166596
v -6.351258 -0.390996 11.835334
v -6.351258 2.629889 11.835334
v 6.072618 -0.390997 12.166596
v 6.072618 1.921919 12.166596
v 6.072618 -0.390997 11.835334
v 6.072618 2.629889 11.835334
v 4.507534 1.471206 10.893921
vn -1.000000 0.000000 0.000000
vn -0.000000 0.000000 -1.000000
vn 1.000000 0.000000 0.000000
vn 0.000000 0.000000 1.000000
vn -0.000000 -1.000000 0.000000
vn 0.000000 1.000000 0.000000
vn 0.098000 0.995200 0.000000
vn 0.290300 0.956900 0.000000
vn 0.471400 0.881900 0.000000
vn 0.634400 0.773000 0.000000
vn 0.773000 0.634400 0.000000
vn 0.881900 0.471400 0.000000
vn 0.956900 0.290300 0.000000
vn 0.995200 0.098000 0.000000
vn 0.995200 -0.098000 0.000000
vn 0.956900 -0.290300 -0.000000
vn 0.881900 -0.471400 0.000000
vn 0.773000 -0.634400 -0.000000
vn 0.634400 -0.773000 -0.000000
vn 0.471400 -0.881900 0.000000
vn 0.290300 -0.956900 -0.000000
vn 0.098000 -0.995200 0.000000
vn -0.098000 -0.995200 -0.000000
vn -0.290300 -0.956900 -0.000000
vn -0.471400 -0.881900 0.000000
vn -0.634400 -0.773000 -0.000000
vn -0.773000 -0.634400 -0.000000
vn -0.881900 -0.471400 -0.000000
vn -0.956900 -0.290300 0.000000
vn -0.995200 -0.098000 0.000000
vn -0.995200 0.098000 0.000000
vn -0.956900 0.290300 0.000000
vn -0.881900 0.471400 0.000000
vn -0.773000 0.634400 0.000000
vn -0.634400 0.773000 0.000000
vn -0.471400 0.881900 0.000000
vn -0.098000 0.995200 0.000000
vn -0.290300 0.956900 0.000000
vn 0.000000 0.704400 -0.709800
vn -0.999900 0.000000 -0.013200
vn -0.010200 0.000000 -0.999900
vn 1.000000 -0.000000 0.005300
vn -0.003300 0.000000 1.000000
vn -0.000200 -1.000000 0.004200
vn -1.000000 -0.000000 0.000300
vn 0.000000 0.129900 -0.991500
vn -0.081000 -0.002600 0.996700
vn 0.000000 0.963000 0.269400
vn -0.660700 0.000000 0.750700
vn -0.001300 0.000000 -1.000000
vn 1.000000 0.000000 -0.000400
vn -0.703300 0.000000 0.710900
vn 0.000000 -0.120500 0.992700
vn 0.000000 -0.963400 -0.268200
vn 0.000000 0.423800 0.905800
vn 0.000100 0.000000 1.000000
vn -0.000100 0.000000 1.000000
vn -0.000100 0.000000 -1.000000
vn 0.000200 0.000000 -1.000000
vn 0.000100 0.000000 -1.000000
vn -0.000200 0.000000 -1.000000
vn -0.009700 -0.008500 0.999900
vn 0.001000 -1.000000 0.002000
vn -0.021900 0.962800 0.269200
usemtl Material
s off
f 4//1 3//1 1//1
f 8//2 7//2 3//2
f 6//3 5//3 7//3
f 2//4 1//4 5//4
f 3//5 7//5 5//5
f 8//6 4//6 2//6
f 10//7 12//7 11//7
f 12//8 14//8 13//8
f 14//9 16//9 15//9
f 16//10 18//10 17//10
f 18//11 20//11 19//11
f 20//12 22//12 21//12
f 22//13 24//13 23//13
f 24//14 26//14 25//14
f 26//15 28//15 27//15
f 28//16 30//16 29//16
f 29//17 30//17 32//17
f 32//18 34//18 33//18
f 34//19 36//19 35//19
f 36//20 38//20 37//20
f 38//21 40//21 39//21
f 40//22 42//22 41//22
f 42//23 44//23 43//23
f 44//24 46//24 45//24
f 46//25 48//25 47//25
f 48//26 50//26 49//26
f 50//27 52//27 51//27
f 52//28 54//28 53//28
f 54//29 56//29 55//29
f 56//30 58//30 57//30
f 58//31 60//31 59//31
f 60//32 62//32 61//32
f 62//33 64//33 63//33
f 64//34 66//34 65//34
f 66//35 68//35 67//35
f 68//36 70//36 69//36
f 46//4 30//4 14//4
f 72//37 10//37 9//37
f 70//38 72//38 71//38
f 39//2 63//2 71//2
f 74//5 75//5 76//5
f 80//6 79//6 78//6
f 77//3 78//3 74//3
f 78//4 79//4 75//4
f 79//1 80//1 76//1
f 73//2 76//2 80//2
f 82//5 83//5 84//5
f 88//39 87//39 86//39
f 85//3 86//3 82//3
f 86//4 87//4 83//4
f 83//1 87//1 88//1
f 81//2 84//2 88//2
f 92//40 91//40 89//40
f 96//41 95//41 91//41
f 96//42 94//42 93//42
f 90//43 89//43 93//43
f 91//44 95//44 93//44
f 94//6 96//6 92//6
f 100//1 99//1 97//1
f 104//2 103//2 99//2
f 102//3 101//3 103//3
f 98//4 97//4 101//4
f 99//5 103//5 101//5
f 104//6 100//6 98//6
f 106//45 108//45 107//45
f 112//46 111//46 107//46
f 110//3 109//3 111//3
f 106//47 105//47 109//47
f 105//5 107//5 111//5
f 112//48 108//48 106//48
f 116//49 115//49 113//49
f 120//50 119//50 115//50
f 120//51 118//51 117//51
f 114//52 113//52 117//52
f 113//5 115//5 119//5
f 120//6 116//6 114//6
f 122//1 124//1 123//1
f 128//53 127//53 123//53
f 126//3 125//3 127//3
f 122//2 121//2 125//2
f 123//6 127//6 125//6
f 128//54 124//54 122//54
f 130//1 132//1 131//1
f 136//2 135//2 131//2
f 134//3 133//3 135//3
f 130//4 129//4 133//4
f 131//5 135//5 133//5
f 136//55 132//55 130//55
f 2//1 4//1 1//1
f 4//2 8//2 3//2
f 8//3 6//3 7//3
f 6//4 2//4 5//4
f 1//5 3//5 5//5
f 6//6 8//6 2//6
f 9//7 10//7 11//7
f 11//8 12//8 13//8
f 13//9 14//9 15//9
f 15//10 16//10 17//10
f 17//11 18//11 19//11
f 19//12 20//12 21//12
f 21//13 22//13 23//13
f 23//14 24//14 25//14
f 25//15 26//15 27//15
f 27//16 28//16 29//16
f 31//17 29//17 32//17
f 31//18 32//18 33//18
f 33//19 34//19 35//19
f 35//20 36//20 37//20
f 37//21 38//21 39//21
f 39//22 40//22 41//22
f 41//23 42//23 43//23
f 43//24 44//24 45//24
f 45//25 46//25 47//25
f 47//26 48//26 49//26
f 49//27 50//27 51//27
f 51//28 52//28 53//28
f 53//29 54//29 55//29
f 55//30 56//30 57//30
f 57//31 58//31 59//31
f 59//32 60//32 61//32
f 61//33 62//33 63//33
f 63//34 64//34 65//34
f 65//35 66//35 67//35
f 67//36 68//36 69//36
f 14//4 12//4 70//4
f 10//4 72//4 70//4
f 70//56 68//56 66//56
f 66//4 64//4 70//4
f 62//4 60//4 54//4
f 58//4 56//4 54//4
f 54//56 52//56 50//56
f 50//57 48//57 46//57
f 46//4 44//4 38//4
f 42//4 40//4 38//4
f 38//4 36//4 34//4
f 34//4 32//4 38//4
f 30//4 28//4 22//4
f 26//4 24//4 22//4
f 22//4 20//4 14//4
f 18//56 16//56 14//56
f 12//4 10//4 70//4
f 70//4 64//4 62//4
f 60//4 58//4 54//4
f 54//4 50//4 62//4
f 44//4 42//4 38//4
f 38//4 32//4 30//4
f 28//56 26//56 22//56
f 20//4 18//4 14//4
f 14//4 70//4 46//4
f 62//4 50//4 46//4
f 46//4 38//4 30//4
f 30//4 22//4 14//4
f 70//4 62//4 46//4
f 71//37 72//37 9//37
f 69//38 70//38 71//38
f 71//2 9//2 11//2
f 11//2 13//2 15//2
f 15//2 17//2 19//2
f 19//58 21//58 23//58
f 23//59 25//59 27//59
f 27//58 29//58 31//58
f 31//2 33//2 39//2
f 35//2 37//2 39//2
f 39//2 41//2 43//2
f 43//2 45//2 47//2
f 47//2 49//2 55//2
f 51//60 53//60 55//60
f 55//61 57//61 59//61
f 59//58 61//58 63//58
f 63//2 65//2 67//2
f 67//2 69//2 71//2
f 71//2 11//2 15//2
f 15//2 19//2 71//2
f 23//2 27//2 31//2
f 33//2 35//2 39//2
f 39//2 43//2 55//2
f 49//2 51//2 55//2
f 55//2 59//2 63//2
f 63//2 67//2 71//2
f 71//2 19//2 23//2
f 23//2 31//2 71//2
f 43//2 47//2 55//2
f 55//2 63//2 39//2
f 71//2 31//2 39//2
f 73//5 74//5 76//5
f 77//6 80//6 78//6
f 73//3 77//3 74//3
f 74//4 78//4 75//4
f 75//1 79//1 76//1
f 77//2 73//2 80//2
f 81//5 82//5 84//5
f 85//39 88//39 86//39
f 81//3 85//3 82//3
f 82//4 86//4 83//4
f 84//1 83//1 88//1
f 85//2 81//2 88//2
f 90//40 92//40 89//40
f 92//41 96//41 91//41
f 95//42 96//42 93//42
f 94//62 90//62 93//62
f 89//63 91//63 93//63
f 90//6 94//6 92//6
f 98//1 100//1 97//1
f 100//2 104//2 99//2
f 104//3 102//3 103//3
f 102//4 98//4 101//4
f 97//5 99//5 101//5
f 102//6 104//6 98//6
f 105//45 106//45 107//45
f 108//46 112//46 107//46
f 112//3 110//3 111//3
f 110//47 106//47 109//47
f 109//5 105//5 111//5
f 110//64 112//64 106//64
f 114//49 116//49 113//49
f 116//50 120//50 115//50
f 119//51 120//51 117//51
f 118//52 114//52 117//52
f 117//5 113//5 119//5
f 118//6 120//6 114//6
f 121//1 122//1 123//1
f 124//53 128//53 123//53
f 128//3 126//3 127//3
f 126//2 122//2 125//2
f 121//6 123//6 125//6
f 126//54 128//54 122//54
f 129//1 130//1 131//1
f 132//2 136//2 131//2
f 136//3 134//3 135//3
f 134//4 130//4 133//4
f 129//5 131//5 133//5
f 134//55 136//55 130//55
