# Blender v2.76 (sub 0) OBJ File: 'level3.blend'
# www.blender.org
mtllib level3.mtl
o Level3_Cube
v 2.500000 -1.023854 -2.500000
v 2.500000 -1.023854 2.500000
v -2.500000 -0.250000 2.500000
v -2.499999 -0.250000 -2.500001
v 2.500001 0.250000 -2.499999
v -2.500000 0.250000 -2.500000
v 2.499998 0.250000 2.500001
v -2.500001 0.250000 2.499999
v -2.500000 -0.250000 2.500000
v -2.499999 -0.250000 -2.273231
v -2.500000 0.250000 -2.273230
v -2.500001 0.250000 2.499999
v -3.567695 -0.250002 1.319082
v -3.567695 0.249998 1.319083
v -3.567697 0.249998 2.432939
v -3.567696 -0.250002 2.432939
v -4.309895 -0.917575 1.319082
v -4.309896 -0.417575 1.319083
v -4.309897 -0.417575 2.499998
v -4.309896 -0.917575 2.499999
v -5.667984 -1.459487 1.319081
v -5.667984 -1.147533 1.319082
v -5.667986 -1.147533 2.499998
v -5.667985 -1.459487 2.499998
v -8.480176 -1.624394 0.353907
v -8.480177 -1.240670 0.353908
v -8.480178 -1.240670 1.437522
v -8.480177 -1.624394 1.437522
v -11.195527 -2.202208 -0.910343
v -11.195528 -1.899711 -0.910342
v -11.195530 -1.899711 0.035294
v -11.195528 -2.202208 0.035294
v -12.541934 -2.115433 -0.772559
v -12.541935 -1.767950 -0.772559
v -12.541937 -1.767950 0.035290
v -12.541935 -2.115433 0.035291
v -14.264840 -2.275298 -0.659540
v -14.264840 -1.972801 -0.659539
v -14.264842 -1.972801 -0.172465
v -14.264840 -2.275298 -0.172465
v -14.264840 -2.275298 -1.828916
v -14.264840 -1.972801 -1.828911
v -14.264842 -1.972801 0.996912
v -14.264840 -2.275298 0.996913
v -17.186806 -2.275300 -1.828921
v -17.186806 -1.972802 -1.828916
v -17.186808 -1.972802 0.996907
v -17.186806 -2.275300 0.996909
v -16.821119 -1.972802 0.679349
v -14.621119 -1.972801 -1.520651
v -14.621119 -1.972801 0.679349
v -16.821119 -1.972802 -1.520651
v -16.821119 -2.275300 0.679349
v -14.621119 -2.275299 -1.520651
v -16.821119 -2.275300 -1.520651
v -14.621119 -2.275299 0.679349
vt 0.385548 0.193635
vt 0.385548 0.547265
vt 0.193635 0.547265
vt 0.000574 0.000574
vt 0.489511 0.000574
vt 0.192487 0.192487
vt 0.995590 0.862636
vt 0.003721 0.864295
vt 0.003721 0.144582
vt 0.682572 0.489511
vt 0.490659 0.489511
vt 0.490659 0.297599
vt 0.422034 0.387735
vt 0.422141 0.387733
vt 0.395100 0.803994
vt 0.395100 0.399088
vt 0.800006 0.399088
vt 0.698185 0.385279
vt 0.698185 0.577193
vt 0.689481 0.577193
vt 0.425566 0.385991
vt 0.422209 0.385991
vt 0.418852 0.193664
vt 0.420786 0.387734
vt 0.420686 0.387735
vt 0.385548 0.692256
vt 0.193636 0.692256
vt 0.193635 0.548413
vt 0.995354 0.000575
vt 0.995354 0.192487
vt 0.954292 0.192486
vt 0.122579 0.999426
vt 0.125153 0.958445
vt 0.167905 0.958445
vt 0.084114 0.431195
vt 0.675503 0.431195
vt 0.230425 0.563479
vt 0.818311 0.256806
vt 0.846797 0.000574
vt 0.846798 0.192487
vt 0.953144 0.258396
vt 0.931852 0.449125
vt 0.931853 0.191301
vt 0.850520 0.545367
vt 0.847946 0.287557
vt 0.893273 0.287557
vt 0.901862 0.811967
vt 0.859109 0.811967
vt 0.859109 0.554157
vt 0.745808 0.214599
vt 0.759010 0.000574
vt 0.780911 0.118290
vt 0.817163 0.214599
vt 0.782060 0.403274
vt 0.782060 0.118290
vt 0.310890 0.907837
vt 0.310890 0.693405
vt 0.356216 0.693405
vt 0.744660 0.670263
vt 0.699333 0.670263
vt 0.699333 0.385279
vt 0.553955 0.797840
vt 0.490659 0.683720
vt 0.637942 0.683720
vt 0.129523 0.710034
vt 0.164957 0.824406
vt 0.044161 0.824406
vt 0.789270 0.534920
vt 0.745808 0.547787
vt 0.749389 0.416230
vt 0.487110 0.926669
vt 0.373405 0.963715
vt 0.373405 0.922123
vt 0.683720 0.250047
vt 0.696620 0.000574
vt 0.744660 0.106275
vt 0.489511 0.444180
vt 0.427552 0.577797
vt 0.427552 0.298967
vt 0.930704 0.250380
vt 0.889904 0.258459
vt 0.895100 0.007625
vt 0.847946 0.278381
vt 0.853143 0.000574
vt 0.888756 0.007580
vt 0.674839 0.764711
vt 0.758032 0.683720
vt 0.770404 0.744176
vt 0.655639 0.915094
vt 0.603960 0.965667
vt 0.603961 0.832295
vt 0.386696 0.523820
vt 0.386696 0.462338
vt 0.417703 0.462338
vt 0.386696 0.388883
vt 0.422992 0.388883
vt 0.417703 0.461190
vt 0.771553 0.745081
vt 0.837824 0.683720
vt 0.837824 0.799826
vt 0.489511 0.668818
vt 0.403301 0.770583
vt 0.403301 0.667535
vt 0.417703 0.387735
vt 0.386696 0.387735
vt 0.394670 0.297523
vt 0.386696 0.296374
vt 0.391034 0.193635
vt 0.409729 0.193635
vt 0.999176 0.426996
vt 0.954292 0.426996
vt 0.954292 0.310890
vt 0.954292 0.309742
vt 0.954292 0.193636
vt 0.999176 0.193636
vt 0.738085 0.681623
vt 0.683720 0.681149
vt 0.792450 0.681149
vt 0.419537 0.387735
vt 0.418852 0.387723
vt 0.193636 0.805557
vt 0.193635 0.693405
vt 0.309741 0.693405
vt 0.857961 0.670263
vt 0.745809 0.670263
vt 0.745808 0.554157
vt 0.305787 0.915167
vt 0.292112 0.903336
vt 0.292113 0.818894
vt 0.672288 0.934990
vt 0.770404 0.946821
vt 0.658252 0.946822
vt 0.109036 0.937707
vt 0.097204 0.924032
vt 0.097204 0.839591
vt 0.589137 0.895262
vt 0.602812 0.798988
vt 0.602812 0.907450
vt 0.373405 0.771732
vt 0.489511 0.771732
vt 0.489511 0.880194
vt 0.905584 0.904772
vt 0.905584 0.788666
vt 0.990026 0.788666
vt 0.905584 0.670263
vt 0.905584 0.554157
vt 0.990026 0.554158
vt 0.887659 0.964043
vt 0.771553 0.964043
vt 0.771553 0.879602
vt 0.905584 0.787518
vt 0.905584 0.671412
vt 0.990026 0.671412
vt 0.193635 0.193635
vt 0.000574 0.192487
vt 0.995590 0.142924
vt 0.682572 0.000574
vt 0.800006 0.803994
vt 0.689481 0.385279
vt 0.422209 0.193635
vt 0.420886 0.387733
vt 0.385547 0.548413
vt 0.954292 0.000574
vt 0.305787 0.999426
vt 0.092422 0.563479
vt 0.818312 0.448720
vt 0.953144 0.000574
vt 0.893273 0.545367
vt 0.904436 0.554157
vt 0.780911 0.403274
vt 0.803961 0.000574
vt 0.356217 0.907837
vt 0.744660 0.385279
vt 0.673691 0.797840
vt 0.000574 0.683720
vt 0.789270 0.404422
vt 0.487110 0.881342
vt 0.744660 0.384131
vt 0.476395 0.193635
vt 0.930704 0.000574
vt 0.888756 0.286409
vt 0.674839 0.837211
vt 0.655639 0.798988
vt 0.422992 0.523820
vt 0.386696 0.461190
vt 0.771553 0.878453
vt 0.478350 0.578945
vt 0.413365 0.297522
vt 0.417703 0.296374
vt 0.999176 0.310890
vt 0.999176 0.309742
vt 0.738101 0.682572
vt 0.309742 0.805557
vt 0.857961 0.554157
vt 0.207671 0.818894
vt 0.305787 0.806705
vt 0.193635 0.806705
vt 0.658252 0.838360
vt 0.672288 0.850548
vt 0.756729 0.934990
vt 0.012763 0.839591
vt 0.109036 0.825555
vt 0.000574 0.825555
vt 0.490659 0.907450
vt 0.504695 0.895262
vt 0.589137 0.810820
vt 0.373405 0.880194
vt 0.990026 0.904772
vt 0.990026 0.670264
vt 0.887659 0.879602
vt 0.990026 0.787518
vn -0.152900 -0.988200 -0.000000
vn 0.000000 0.000000 -1.000000
vn 1.000000 0.000000 0.000000
vn -0.000000 0.000000 1.000000
vn 0.000000 1.000000 0.000000
vn -1.000000 -0.000000 0.000000
vn -0.958600 -0.000000 -0.284900
vn -0.062700 0.000000 0.998000
vn 0.000000 -1.000000 0.000000
vn 0.090000 0.000000 0.995900
vn 0.668700 -0.743500 0.000000
vn -0.668700 0.743500 -0.000000
vn 0.370600 -0.928800 0.000000
vn -0.473400 0.880800 -0.000000
vn 0.324600 0.000000 -0.945800
vn -0.353400 -0.000000 0.935500
vn 0.058500 -0.998300 0.000000
vn -0.033100 0.999500 -0.000000
vn 0.422100 0.000000 -0.906600
vn -0.458800 -0.000000 0.888500
vn 0.208100 -0.978100 0.000000
vn -0.235900 0.971800 -0.000000
vn -0.101800 0.000000 -0.994800
vn -0.064300 -0.997900 -0.000000
vn 0.097400 0.995200 0.000000
vn -0.065500 0.000000 -0.997900
vn -0.119700 0.000000 0.992800
vn 0.092400 -0.995700 0.000000
vn -0.118100 0.993000 -0.000000
usemtl Material
s off
f 2/1/1 3/2/1 4/3/1
f 5/4/2 1/5/2 4/6/2
f 5/7/3 7/8/3 2/9/3
f 7/10/4 8/11/4 3/12/4
f 3/13/4 9/13/4 10/14/4
f 6/15/5 8/16/5 7/17/5
f 10/18/6 11/19/6 6/20/6
f 8/21/4 12/22/4 9/23/4
f 11/24/4 12/25/4 8/25/4
f 11/26/7 10/27/7 13/28/7
f 9/29/8 12/30/8 15/31/8
f 9/32/9 16/33/9 13/34/9
f 12/35/5 11/36/5 14/37/5
f 13/38/2 17/39/2 18/40/2
f 16/41/10 15/42/10 19/43/10
f 16/44/11 20/45/11 17/46/11
f 15/47/12 14/48/12 18/49/12
f 17/50/2 21/51/2 22/52/2
f 20/53/4 19/54/4 23/55/4
f 20/56/13 24/57/13 21/58/13
f 19/59/14 18/60/14 22/61/14
f 21/62/15 25/63/15 26/64/15
f 24/65/16 23/66/16 27/67/16
f 21/68/17 24/69/17 28/70/17
f 22/71/18 26/72/18 27/73/18
f 25/74/19 29/75/19 30/76/19
f 28/77/20 27/78/20 31/79/20
f 25/80/21 28/81/21 32/82/21
f 26/83/22 30/84/22 31/85/22
f 30/86/23 29/87/23 33/88/23
f 31/89/4 35/90/4 36/91/4
f 32/92/24 36/93/24 33/94/24
f 31/95/25 30/96/25 34/97/25
f 33/98/26 37/99/26 38/100/26
f 36/101/27 35/102/27 39/103/27
f 33/104/28 36/105/28 40/106/28
f 34/107/29 38/108/29 39/109/29
f 42/110/3 38/111/3 37/112/3
f 43/113/3 44/114/3 40/115/3
f 40/116/4 44/117/4 41/118/4
f 42/119/9 43/120/9 39/119/9
f 41/121/2 45/122/2 46/123/2
f 43/124/4 47/125/4 48/126/4
f 42/127/5 50/128/5 51/129/5
f 52/130/5 42/131/5 46/132/5
f 41/133/9 54/134/9 55/135/9
f 56/136/9 41/137/9 44/138/9
f 48/139/6 47/140/6 46/141/6
f 49/142/3 53/143/3 55/144/3
f 52/145/4 55/146/4 54/147/4
f 51/148/2 56/149/2 53/150/2
f 50/151/6 54/152/6 56/153/6
f 1/154/1 2/1/1 4/3/1
f 6/155/2 5/4/2 4/6/2
f 1/156/3 5/7/3 2/9/3
f 2/157/4 7/10/4 3/12/4
f 4/14/5 3/13/5 10/14/5
f 5/158/5 6/15/5 7/17/5
f 4/159/6 10/18/6 6/20/6
f 3/160/4 8/21/4 9/23/4
f 6/161/4 11/24/4 8/25/4
f 14/162/7 11/26/7 13/28/7
f 16/163/8 9/29/8 15/31/8
f 10/164/9 9/32/9 13/34/9
f 15/165/5 12/35/5 14/37/5
f 14/166/2 13/38/2 18/40/2
f 20/167/10 16/41/10 19/43/10
f 13/168/11 16/44/11 17/46/11
f 19/169/12 15/47/12 18/49/12
f 18/170/2 17/50/2 22/52/2
f 24/171/4 20/53/4 23/55/4
f 17/172/13 20/56/13 21/58/13
f 23/173/14 19/59/14 22/61/14
f 22/174/15 21/62/15 26/64/15
f 28/175/16 24/65/16 27/67/16
f 25/176/17 21/68/17 28/70/17
f 23/177/18 22/71/18 27/73/18
f 26/178/19 25/74/19 30/76/19
f 32/179/20 28/77/20 31/79/20
f 29/180/21 25/80/21 32/82/21
f 27/181/22 26/83/22 31/85/22
f 34/182/23 30/86/23 33/88/23
f 32/183/4 31/89/4 36/91/4
f 29/184/24 32/92/24 33/94/24
f 35/185/25 31/95/25 34/97/25
f 34/186/26 33/98/26 38/100/26
f 40/187/27 36/101/27 39/103/27
f 37/188/28 33/104/28 40/106/28
f 35/189/29 34/107/29 39/109/29
f 41/190/3 42/110/3 37/112/3
f 39/191/3 43/113/3 40/115/3
f 37/192/4 40/116/4 41/118/4
f 38/119/5 42/119/5 39/119/5
f 42/193/2 41/121/2 46/123/2
f 44/194/4 43/124/4 48/126/4
f 51/129/5 49/195/5 43/196/5
f 43/196/5 42/127/5 51/129/5
f 49/195/5 47/197/5 43/196/5
f 47/198/5 49/199/5 46/132/5
f 52/130/5 50/200/5 42/131/5
f 46/132/5 49/199/5 52/130/5
f 55/135/9 53/201/9 45/202/9
f 45/202/9 41/133/9 55/135/9
f 53/201/9 48/203/9 45/202/9
f 48/204/9 53/205/9 44/138/9
f 56/136/9 54/206/9 41/137/9
f 44/138/9 53/205/9 56/136/9
f 45/207/6 48/139/6 46/141/6
f 52/208/3 49/142/3 55/144/3
f 50/209/4 52/145/4 54/147/4
f 49/210/2 51/148/2 53/150/2
f 51/211/6 50/151/6 56/153/6
